ffmpeg started on 2026-04-09 at 15:10:11
Report written to "D:\Convert\FFMetrics\reports\psnr_report-6.txt"
Log level: 32
Command line:
ffmpeg -hide_banner -nostdin -r 24000/1001 -i "F:\\Convert\\files\\[DC] Make Heroine ga Oosugiru - 07_Telegram_HEVC(316).mkv" -r 24000/1001 -i "F:\\Convert\\files\\[DC] Make Heroine ga Oosugiru - 07_Telegram.mp4" -lavfi "[0:v]settb=AVTB,setpts=PTS-STARTPTS,format=pix_fmts=yuv420p10le,fps=24000/1001,scale=1920:1080:flags=lanczos:param0=3:out_range=limited:out_color_matrix=bt709:out_chroma_loc=left,setsar=1/1,setdar=(1920/1080)*(1/1),colorspace=format=yuv420p10:range=tv:primaries=bt709:trc=bt709:space=bt709:fast=0[main];[1:v]settb=AVTB,setpts=PTS-STARTPTS,format=pix_fmts=yuv420p,fps=24000/1001,scale=1920:1080:flags=lanczos:param0=3:out_range=limited:out_color_matrix=bt709:out_chroma_loc=left,setsar=1/1,setdar=(1920/1080)*(1/1),colorspace=format=yuv420p:range=tv:primaries=bt709:trc=bt709:space=bt709:fast=0[ref];[main][ref]psnr=eof_action=endall:stats_file='D\\:/Convert/FFMetrics/logs/psnr_logfile-6.txt'" -f null -
Input #0, matroska,webm, from 'F:\Convert\files\[DC] Make Heroine ga Oosugiru - 07_Telegram_HEVC(316).mkv':
  Metadata:
    COMPATIBLE_BRANDS: isomiso2avc1mp41
    MAJOR_BRAND     : isom
    MINOR_VERSION   : 512
    ENCODER         : Lavf61.7.100
  Duration: 00:24:06.79, start: -0.021000, bitrate: 943 kb/s
  Stream #0:0: Video: hevc (Main 10), yuv420p10le(tv, bt709, progressive), 1920x1080 [SAR 1:1 DAR 16:9], 23.98 fps, 23.98 tbr, 1k tbn (default)
      Metadata:
        HANDLER_NAME    : VideoHandler
        VENDOR_ID       : [0][0][0][0]
        ENCODER         : Lavc61.19.100 libx265
        BPS             : 746087
        DURATION        : 00:24:06.569708333
        NUMBER_OF_FRAMES: 34683
        NUMBER_OF_BYTES : 134908445
        _STATISTICS_WRITING_APP: mkvpropedit v94.0 ('Initiate') 64-bit
        _STATISTICS_WRITING_DATE_UTC: 2026-04-09 09:35:23
        _STATISTICS_TAGS: BPS DURATION NUMBER_OF_FRAMES NUMBER_OF_BYTES
  Stream #0:1: Audio: aac (LC), 48000 Hz, stereo, fltp (default)
      Metadata:
        HANDLER_NAME    : SoundHandler
        VENDOR_ID       : [0][0][0][0]
        ENCODER         : Lavc61.19.100 aac
        BPS             : 193194
        DURATION        : 00:24:06.784000000
        NUMBER_OF_FRAMES: 67819
        NUMBER_OF_BYTES : 34938755
        _STATISTICS_WRITING_APP: mkvpropedit v94.0 ('Initiate') 64-bit
        _STATISTICS_WRITING_DATE_UTC: 2026-04-09 09:35:23
        _STATISTICS_TAGS: BPS DURATION NUMBER_OF_FRAMES NUMBER_OF_BYTES
Input #1, mov,mp4,m4a,3gp,3g2,mj2, from 'F:\Convert\files\[DC] Make Heroine ga Oosugiru - 07_Telegram.mp4':
  Metadata:
    major_brand     : isom
    minor_version   : 512
    compatible_brands: isomiso2avc1mp41
    encoder         : Lavf60.16.100
  Duration: 00:24:06.74, start: 0.000000, bitrate: 3764 kb/s
  Stream #1:0[0x1](und): Video: h264 (High) (avc1 / 0x31637661), yuv420p(tv, bt709, progressive), 1920x1080 [SAR 1:1 DAR 16:9], 3616 kb/s, 23.98 fps, 23.98 tbr, 24k tbn (default)
      Metadata:
        handler_name    : VideoHandler
        vendor_id       : [0][0][0][0]
        encoder         : Lavc60.31.102 h264_qsv
  Stream #1:1[0x2](und): Audio: aac (HE-AACv2) (mp4a / 0x6134706D), 48000 Hz, stereo, fltp, 144 kb/s (default)
      Metadata:
        handler_name    : SoundHandler
        vendor_id       : [0][0][0][0]
Stream mapping:
  Stream #0:0 (hevc) -> settb:default
  Stream #1:0 (h264) -> settb:default
  psnr:default -> Stream #0:0 (wrapped_avframe)
  Stream #0:1 -> #0:1 (aac (native) -> pcm_s16le (native))
Output #0, null, to 'pipe:':
  Metadata:
    COMPATIBLE_BRANDS: isomiso2avc1mp41
    MAJOR_BRAND     : isom
    MINOR_VERSION   : 512
    encoder         : Lavf61.7.100
  Stream #0:0: Video: wrapped_avframe, yuv420p10le(tv, bt709, progressive), 1920x1080 [SAR 1:1 DAR 16:9], q=2-31, 200 kb/s, 23.98 fps, 23.98 tbn
      Metadata:
        encoder         : Lavc61.19.100 wrapped_avframe
  Stream #0:1: Audio: pcm_s16le, 48000 Hz, stereo, s16, 1536 kb/s (default)
      Metadata:
        HANDLER_NAME    : SoundHandler
        VENDOR_ID       : [0][0][0][0]
        _STATISTICS_TAGS: BPS DURATION NUMBER_OF_FRAMES NUMBER_OF_BYTES
        BPS             : 193194
        DURATION        : 00:24:06.784000000
        NUMBER_OF_FRAMES: 67819
        NUMBER_OF_BYTES : 34938755
        _STATISTICS_WRITING_APP: mkvpropedit v94.0 ('Initiate') 64-bit
        _STATISTICS_WRITING_DATE_UTC: 2026-04-09 09:35:23
        encoder         : Lavc61.19.100 pcm_s16le
frame=  109 fps=0.0 q=-0.0 size=N/A time=00:00:04.54 bitrate=N/A speed=8.87x    frame=  265 fps=259 q=-0.0 size=N/A time=00:00:11.05 bitrate=N/A speed=10.8x    frame=  430 fps=280 q=-0.0 size=N/A time=00:00:17.93 bitrate=N/A speed=11.7x    frame=  607 fps=294 q=-0.0 size=N/A time=00:00:25.31 bitrate=N/A speed=12.3x    frame=  776 fps=301 q=-0.0 size=N/A time=00:00:32.36 bitrate=N/A speed=12.6x    frame=  924 fps=300 q=-0.0 size=N/A time=00:00:38.53 bitrate=N/A speed=12.5x    frame= 1058 fps=293 q=-0.0 size=N/A time=00:00:44.12 bitrate=N/A speed=12.2x    frame= 1205 fps=292 q=-0.0 size=N/A time=00:00:50.25 bitrate=N/A speed=12.2x    frame= 1350 fps=291 q=-0.0 size=N/A time=00:00:56.30 bitrate=N/A speed=12.2x    frame= 1490 fps=290 q=-0.0 size=N/A time=00:01:02.14 bitrate=N/A speed=12.1x    frame= 1622 fps=286 q=-0.0 size=N/A time=00:01:07.65 bitrate=N/A speed=11.9x    frame= 1759 fps=284 q=-0.0 size=N/A time=00:01:13.36 bitrate=N/A speed=11.9x    frame= 1910 fps=285 q=-0.0 size=N/A time=00:01:19.66 bitrate=N/A speed=11.9x    frame= 2052 fps=285 q=-0.0 size=N/A time=00:01:25.58 bitrate=N/A speed=11.9x    frame= 2164 fps=280 q=-0.0 size=N/A time=00:01:30.25 bitrate=N/A speed=11.7x    frame= 2302 fps=279 q=-0.0 size=N/A time=00:01:36.01 bitrate=N/A speed=11.7x    frame= 2438 fps=278 q=-0.0 size=N/A time=00:01:41.68 bitrate=N/A speed=11.6x    frame= 2558 fps=276 q=-0.0 size=N/A time=00:01:46.68 bitrate=N/A speed=11.5x    frame= 2716 fps=278 q=-0.0 size=N/A time=00:01:53.27 bitrate=N/A speed=11.6x    frame= 2877 fps=279 q=-0.0 size=N/A time=00:01:59.99 bitrate=N/A speed=11.6x    frame= 3041 fps=281 q=-0.0 size=N/A time=00:02:06.83 bitrate=N/A speed=11.7x    frame= 3222 fps=284 q=-0.0 size=N/A time=00:02:14.38 bitrate=N/A speed=11.9x    frame= 3405 fps=287 q=-0.0 size=N/A time=00:02:22.01 bitrate=N/A speed=  12x    frame= 3583 fps=290 q=-0.0 size=N/A time=00:02:29.44 bitrate=N/A speed=12.1x    frame= 3752 fps=291 q=-0.0 size=N/A time=00:02:36.48 bitrate=N/A speed=12.1x    frame= 3919 fps=293 q=-0.0 size=N/A time=00:02:43.45 bitrate=N/A speed=12.2x    frame= 4095 fps=294 q=-0.0 size=N/A time=00:02:50.79 bitrate=N/A speed=12.3x    frame= 4267 fps=296 q=-0.0 size=N/A time=00:02:57.96 bitrate=N/A speed=12.3x    frame= 4440 fps=297 q=-0.0 size=N/A time=00:03:05.18 bitrate=N/A speed=12.4x    frame= 4613 fps=298 q=-0.0 size=N/A time=00:03:12.40 bitrate=N/A speed=12.4x    frame= 4790 fps=300 q=-0.0 size=N/A time=00:03:19.78 bitrate=N/A speed=12.5x    frame= 4967 fps=301 q=-0.0 size=N/A time=00:03:27.16 bitrate=N/A speed=12.6x    frame= 5142 fps=302 q=-0.0 size=N/A time=00:03:34.46 bitrate=N/A speed=12.6x    frame= 5313 fps=303 q=-0.0 size=N/A time=00:03:41.59 bitrate=N/A speed=12.6x    frame= 5477 fps=304 q=-0.0 size=N/A time=00:03:48.43 bitrate=N/A speed=12.7x    frame= 5646 fps=304 q=-0.0 size=N/A time=00:03:55.48 bitrate=N/A speed=12.7x    frame= 5817 fps=305 q=-0.0 size=N/A time=00:04:02.61 bitrate=N/A speed=12.7x    frame= 5980 fps=305 q=-0.0 size=N/A time=00:04:09.41 bitrate=N/A speed=12.7x    frame= 6149 fps=306 q=-0.0 size=N/A time=00:04:16.46 bitrate=N/A speed=12.8x    frame= 6316 fps=306 q=-0.0 size=N/A time=00:04:23.42 bitrate=N/A speed=12.8x    frame= 6481 fps=307 q=-0.0 size=N/A time=00:04:30.31 bitrate=N/A speed=12.8x    frame= 6652 fps=307 q=-0.0 size=N/A time=00:04:37.44 bitrate=N/A speed=12.8x    frame= 6819 fps=308 q=-0.0 size=N/A time=00:04:44.40 bitrate=N/A speed=12.8x    frame= 6987 fps=308 q=-0.0 size=N/A time=00:04:51.41 bitrate=N/A speed=12.8x    frame= 7137 fps=308 q=-0.0 size=N/A time=00:04:57.67 bitrate=N/A speed=12.8x    frame= 7297 fps=308 q=-0.0 size=N/A time=00:05:04.34 bitrate=N/A speed=12.8x    frame= 7452 fps=308 q=-0.0 size=N/A time=00:05:10.81 bitrate=N/A speed=12.8x    frame= 7609 fps=308 q=-0.0 size=N/A time=00:05:17.35 bitrate=N/A speed=12.8x    frame= 7767 fps=307 q=-0.0 size=N/A time=00:05:23.94 bitrate=N/A speed=12.8x    frame= 7926 fps=307 q=-0.0 size=N/A time=00:05:30.58 bitrate=N/A speed=12.8x    frame= 8090 fps=308 q=-0.0 size=N/A time=00:05:37.42 bitrate=N/A speed=12.8x    frame= 8250 fps=308 q=-0.0 size=N/A time=00:05:44.09 bitrate=N/A speed=12.8x    frame= 8392 fps=307 q=-0.0 size=N/A time=00:05:50.01 bitrate=N/A speed=12.8x    frame= 8555 fps=307 q=-0.0 size=N/A time=00:05:56.81 bitrate=N/A speed=12.8x    frame= 8727 fps=308 q=-0.0 size=N/A time=00:06:03.98 bitrate=N/A speed=12.8x    frame= 8889 fps=308 q=-0.0 size=N/A time=00:06:10.74 bitrate=N/A speed=12.8x    frame= 9073 fps=309 q=-0.0 size=N/A time=00:06:18.41 bitrate=N/A speed=12.9x    frame= 9239 fps=309 q=-0.0 size=N/A time=00:06:25.34 bitrate=N/A speed=12.9x    frame= 9401 fps=309 q=-0.0 size=N/A time=00:06:32.10 bitrate=N/A speed=12.9x    frame= 9557 fps=309 q=-0.0 size=N/A time=00:06:38.60 bitrate=N/A speed=12.9x    frame= 9721 fps=309 q=-0.0 size=N/A time=00:06:45.44 bitrate=N/A speed=12.9x    frame= 9886 fps=309 q=-0.0 size=N/A time=00:06:52.32 bitrate=N/A speed=12.9x    frame=10038 fps=309 q=-0.0 size=N/A time=00:06:58.66 bitrate=N/A speed=12.9x    frame=10194 fps=309 q=-0.0 size=N/A time=00:07:05.17 bitrate=N/A speed=12.9x    frame=10366 fps=309 q=-0.0 size=N/A time=00:07:12.34 bitrate=N/A speed=12.9x    frame=10532 fps=309 q=-0.0 size=N/A time=00:07:19.27 bitrate=N/A speed=12.9x    frame=10704 fps=310 q=-0.0 size=N/A time=00:07:26.44 bitrate=N/A speed=12.9x    frame=10867 fps=310 q=-0.0 size=N/A time=00:07:33.24 bitrate=N/A speed=12.9x    frame=11029 fps=310 q=-0.0 size=N/A time=00:07:40.00 bitrate=N/A speed=12.9x    frame=11198 fps=310 q=-0.0 size=N/A time=00:07:47.04 bitrate=N/A speed=12.9x    frame=11364 fps=310 q=-0.0 size=N/A time=00:07:53.97 bitrate=N/A speed=12.9x    frame=11535 fps=311 q=-0.0 size=N/A time=00:08:01.10 bitrate=N/A speed=  13x    frame=11715 fps=311 q=-0.0 size=N/A time=00:08:08.61 bitrate=N/A speed=  13x    frame=11881 fps=311 q=-0.0 size=N/A time=00:08:15.53 bitrate=N/A speed=  13x    frame=12031 fps=311 q=-0.0 size=N/A time=00:08:21.79 bitrate=N/A speed=  13x    frame=12193 fps=311 q=-0.0 size=N/A time=00:08:28.54 bitrate=N/A speed=  13x    frame=12367 fps=311 q=-0.0 size=N/A time=00:08:35.80 bitrate=N/A speed=  13x    frame=12541 fps=312 q=-0.0 size=N/A time=00:08:43.06 bitrate=N/A speed=  13x    frame=12718 fps=312 q=-0.0 size=N/A time=00:08:50.44 bitrate=N/A speed=  13x    frame=12886 fps=312 q=-0.0 size=N/A time=00:08:57.45 bitrate=N/A speed=  13x    frame=13057 fps=313 q=-0.0 size=N/A time=00:09:04.58 bitrate=N/A speed=  13x    frame=13215 fps=312 q=-0.0 size=N/A time=00:09:11.17 bitrate=N/A speed=  13x    frame=13377 fps=313 q=-0.0 size=N/A time=00:09:17.93 bitrate=N/A speed=  13x    frame=13527 fps=312 q=-0.0 size=N/A time=00:09:24.18 bitrate=N/A speed=  13x    frame=13676 fps=312 q=-0.0 size=N/A time=00:09:30.40 bitrate=N/A speed=  13x    frame=13846 fps=312 q=-0.0 size=N/A time=00:09:37.49 bitrate=N/A speed=  13x    frame=14012 fps=312 q=-0.0 size=N/A time=00:09:44.41 bitrate=N/A speed=  13x    frame=14178 fps=312 q=-0.0 size=N/A time=00:09:51.34 bitrate=N/A speed=  13x    frame=14326 fps=312 q=-0.0 size=N/A time=00:09:57.51 bitrate=N/A speed=  13x    frame=14484 fps=312 q=-0.0 size=N/A time=00:10:04.10 bitrate=N/A speed=  13x    frame=14640 fps=312 q=-0.0 size=N/A time=00:10:10.61 bitrate=N/A speed=  13x    frame=14796 fps=312 q=-0.0 size=N/A time=00:10:17.11 bitrate=N/A speed=  13x    frame=14952 fps=312 q=-0.0 size=N/A time=00:10:23.62 bitrate=N/A speed=  13x    frame=15093 fps=311 q=-0.0 size=N/A time=00:10:29.50 bitrate=N/A speed=  13x    frame=15222 fps=311 q=-0.0 size=N/A time=00:10:34.88 bitrate=N/A speed=  13x    frame=15391 fps=311 q=-0.0 size=N/A time=00:10:41.93 bitrate=N/A speed=  13x    frame=15559 fps=311 q=-0.0 size=N/A time=00:10:48.93 bitrate=N/A speed=  13x    frame=15704 fps=311 q=-0.0 size=N/A time=00:10:54.98 bitrate=N/A speed=  13x    frame=15876 fps=311 q=-0.0 size=N/A time=00:11:02.16 bitrate=N/A speed=  13x    frame=16035 fps=311 q=-0.0 size=N/A time=00:11:08.79 bitrate=N/A speed=  13x    frame=16190 fps=311 q=-0.0 size=N/A time=00:11:15.25 bitrate=N/A speed=  13x    frame=16359 fps=311 q=-0.0 size=N/A time=00:11:22.30 bitrate=N/A speed=  13x    frame=16522 fps=311 q=-0.0 size=N/A time=00:11:29.10 bitrate=N/A speed=  13x    frame=16692 fps=311 q=-0.0 size=N/A time=00:11:36.19 bitrate=N/A speed=  13x    frame=16861 fps=311 q=-0.0 size=N/A time=00:11:43.24 bitrate=N/A speed=  13x    frame=17032 fps=311 q=-0.0 size=N/A time=00:11:50.37 bitrate=N/A speed=  13x    frame=17204 fps=312 q=-0.0 size=N/A time=00:11:57.55 bitrate=N/A speed=  13x    frame=17362 fps=312 q=-0.0 size=N/A time=00:12:04.14 bitrate=N/A speed=  13x    frame=17518 fps=311 q=-0.0 size=N/A time=00:12:10.64 bitrate=N/A speed=  13x    frame=17680 fps=311 q=-0.0 size=N/A time=00:12:17.40 bitrate=N/A speed=  13x    frame=17841 fps=311 q=-0.0 size=N/A time=00:12:24.11 bitrate=N/A speed=  13x    frame=17978 fps=311 q=-0.0 size=N/A time=00:12:29.83 bitrate=N/A speed=  13x    frame=18136 fps=311 q=-0.0 size=N/A time=00:12:36.42 bitrate=N/A speed=  13x    frame=18293 fps=311 q=-0.0 size=N/A time=00:12:42.97 bitrate=N/A speed=  13x    frame=18461 fps=311 q=-0.0 size=N/A time=00:12:49.97 bitrate=N/A speed=  13x    frame=18627 fps=311 q=-0.0 size=N/A time=00:12:56.90 bitrate=N/A speed=  13x    frame=18798 fps=311 q=-0.0 size=N/A time=00:13:04.03 bitrate=N/A speed=  13x    frame=18970 fps=312 q=-0.0 size=N/A time=00:13:11.20 bitrate=N/A speed=  13x    frame=19145 fps=312 q=-0.0 size=N/A time=00:13:18.50 bitrate=N/A speed=  13x    frame=19294 fps=312 q=-0.0 size=N/A time=00:13:24.72 bitrate=N/A speed=  13x    frame=19470 fps=312 q=-0.0 size=N/A time=00:13:32.06 bitrate=N/A speed=  13x    frame=19640 fps=312 q=-0.0 size=N/A time=00:13:39.15 bitrate=N/A speed=  13x    frame=19804 fps=312 q=-0.0 size=N/A time=00:13:45.99 bitrate=N/A speed=  13x    frame=19981 fps=312 q=-0.0 size=N/A time=00:13:53.37 bitrate=N/A speed=  13x    frame=20158 fps=313 q=-0.0 size=N/A time=00:14:00.75 bitrate=N/A speed=  13x    frame=20330 fps=313 q=-0.0 size=N/A time=00:14:07.93 bitrate=N/A speed=  13x    frame=20498 fps=313 q=-0.0 size=N/A time=00:14:14.93 bitrate=N/A speed=  13x    frame=20648 fps=313 q=-0.0 size=N/A time=00:14:21.19 bitrate=N/A speed=  13x    frame=20820 fps=313 q=-0.0 size=N/A time=00:14:28.36 bitrate=N/A speed=  13x    frame=20999 fps=313 q=-0.0 size=N/A time=00:14:35.83 bitrate=N/A speed=13.1x    frame=21167 fps=313 q=-0.0 size=N/A time=00:14:42.84 bitrate=N/A speed=13.1x    frame=21336 fps=313 q=-0.0 size=N/A time=00:14:49.88 bitrate=N/A speed=13.1x    frame=21508 fps=313 q=-0.0 size=N/A time=00:14:57.06 bitrate=N/A speed=13.1x    frame=21676 fps=314 q=-0.0 size=N/A time=00:15:04.06 bitrate=N/A speed=13.1x    frame=21846 fps=314 q=-0.0 size=N/A time=00:15:11.16 bitrate=N/A speed=13.1x    frame=22025 fps=314 q=-0.0 size=N/A time=00:15:18.62 bitrate=N/A speed=13.1x    frame=22203 fps=314 q=-0.0 size=N/A time=00:15:26.05 bitrate=N/A speed=13.1x    frame=22372 fps=314 q=-0.0 size=N/A time=00:15:33.09 bitrate=N/A speed=13.1x    frame=22533 fps=314 q=-0.0 size=N/A time=00:15:39.81 bitrate=N/A speed=13.1x    frame=22706 fps=314 q=-0.0 size=N/A time=00:15:47.02 bitrate=N/A speed=13.1x    frame=22877 fps=314 q=-0.0 size=N/A time=00:15:54.16 bitrate=N/A speed=13.1x    frame=23049 fps=315 q=-0.0 size=N/A time=00:16:01.33 bitrate=N/A speed=13.1x    frame=23226 fps=315 q=-0.0 size=N/A time=00:16:08.71 bitrate=N/A speed=13.1x    frame=23391 fps=315 q=-0.0 size=N/A time=00:16:15.59 bitrate=N/A speed=13.1x    frame=23560 fps=315 q=-0.0 size=N/A time=00:16:22.64 bitrate=N/A speed=13.1x    frame=23737 fps=315 q=-0.0 size=N/A time=00:16:30.03 bitrate=N/A speed=13.1x    frame=23909 fps=315 q=-0.0 size=N/A time=00:16:37.20 bitrate=N/A speed=13.1x    frame=24090 fps=315 q=-0.0 size=N/A time=00:16:44.75 bitrate=N/A speed=13.2x    frame=24257 fps=315 q=-0.0 size=N/A time=00:16:51.71 bitrate=N/A speed=13.2x    frame=24435 fps=316 q=-0.0 size=N/A time=00:16:59.14 bitrate=N/A speed=13.2x    frame=24598 fps=316 q=-0.0 size=N/A time=00:17:05.94 bitrate=N/A speed=13.2x    frame=24767 fps=316 q=-0.0 size=N/A time=00:17:12.99 bitrate=N/A speed=13.2x    frame=24945 fps=316 q=-0.0 size=N/A time=00:17:20.41 bitrate=N/A speed=13.2x    frame=25128 fps=316 q=-0.0 size=N/A time=00:17:28.04 bitrate=N/A speed=13.2x    frame=25309 fps=316 q=-0.0 size=N/A time=00:17:35.59 bitrate=N/A speed=13.2x    frame=25479 fps=317 q=-0.0 size=N/A time=00:17:42.68 bitrate=N/A speed=13.2x    frame=25664 fps=317 q=-0.0 size=N/A time=00:17:50.40 bitrate=N/A speed=13.2x    frame=25827 fps=317 q=-0.0 size=N/A time=00:17:57.24 bitrate=N/A speed=13.2x    frame=26009 fps=317 q=-0.0 size=N/A time=00:18:04.79 bitrate=N/A speed=13.2x    frame=26177 fps=317 q=-0.0 size=N/A time=00:18:11.79 bitrate=N/A speed=13.2x    frame=26359 fps=317 q=-0.0 size=N/A time=00:18:19.38 bitrate=N/A speed=13.2x    frame=26532 fps=317 q=-0.0 size=N/A time=00:18:26.60 bitrate=N/A speed=13.2x    frame=26705 fps=318 q=-0.0 size=N/A time=00:18:33.82 bitrate=N/A speed=13.2x    frame=26873 fps=318 q=-0.0 size=N/A time=00:18:40.82 bitrate=N/A speed=13.2x    frame=27031 fps=318 q=-0.0 size=N/A time=00:18:47.41 bitrate=N/A speed=13.2x    frame=27185 fps=317 q=-0.0 size=N/A time=00:18:53.84 bitrate=N/A speed=13.2x    frame=27356 fps=317 q=-0.0 size=N/A time=00:19:00.97 bitrate=N/A speed=13.2x    frame=27523 fps=318 q=-0.0 size=N/A time=00:19:07.93 bitrate=N/A speed=13.2x    frame=27694 fps=318 q=-0.0 size=N/A time=00:19:15.07 bitrate=N/A speed=13.2x    frame=27860 fps=318 q=-0.0 size=N/A time=00:19:21.99 bitrate=N/A speed=13.2x    frame=28020 fps=318 q=-0.0 size=N/A time=00:19:28.66 bitrate=N/A speed=13.2x    frame=28187 fps=318 q=-0.0 size=N/A time=00:19:35.63 bitrate=N/A speed=13.2x    frame=28362 fps=318 q=-0.0 size=N/A time=00:19:42.93 bitrate=N/A speed=13.3x    frame=28531 fps=318 q=-0.0 size=N/A time=00:19:49.98 bitrate=N/A speed=13.3x    frame=28700 fps=318 q=-0.0 size=N/A time=00:19:57.02 bitrate=N/A speed=13.3x    frame=28849 fps=318 q=-0.0 size=N/A time=00:20:03.24 bitrate=N/A speed=13.2x    frame=28996 fps=318 q=-0.0 size=N/A time=00:20:09.37 bitrate=N/A speed=13.2x    frame=29149 fps=317 q=-0.0 size=N/A time=00:20:15.75 bitrate=N/A speed=13.2x    frame=29309 fps=317 q=-0.0 size=N/A time=00:20:22.42 bitrate=N/A speed=13.2x    frame=29466 fps=317 q=-0.0 size=N/A time=00:20:28.97 bitrate=N/A speed=13.2x    frame=29623 fps=317 q=-0.0 size=N/A time=00:20:35.52 bitrate=N/A speed=13.2x    frame=29775 fps=317 q=-0.0 size=N/A time=00:20:41.86 bitrate=N/A speed=13.2x    frame=29934 fps=317 q=-0.0 size=N/A time=00:20:48.49 bitrate=N/A speed=13.2x    frame=30077 fps=317 q=-0.0 size=N/A time=00:20:54.46 bitrate=N/A speed=13.2x    frame=30236 fps=317 q=-0.0 size=N/A time=00:21:01.09 bitrate=N/A speed=13.2x    frame=30407 fps=317 q=-0.0 size=N/A time=00:21:08.22 bitrate=N/A speed=13.2x    frame=30571 fps=317 q=-0.0 size=N/A time=00:21:15.06 bitrate=N/A speed=13.2x    frame=30739 fps=317 q=-0.0 size=N/A time=00:21:22.07 bitrate=N/A speed=13.2x    frame=30920 fps=317 q=-0.0 size=N/A time=00:21:29.62 bitrate=N/A speed=13.2x    frame=31089 fps=317 q=-0.0 size=N/A time=00:21:36.67 bitrate=N/A speed=13.2x    frame=31256 fps=317 q=-0.0 size=N/A time=00:21:43.63 bitrate=N/A speed=13.2x    frame=31411 fps=317 q=-0.0 size=N/A time=00:21:50.10 bitrate=N/A speed=13.2x    frame=31582 fps=317 q=-0.0 size=N/A time=00:21:57.23 bitrate=N/A speed=13.2x    frame=31746 fps=317 q=-0.0 size=N/A time=00:22:04.07 bitrate=N/A speed=13.2x    frame=31900 fps=317 q=-0.0 size=N/A time=00:22:10.49 bitrate=N/A speed=13.2x    frame=32060 fps=317 q=-0.0 size=N/A time=00:22:17.16 bitrate=N/A speed=13.2x    frame=32222 fps=317 q=-0.0 size=N/A time=00:22:23.92 bitrate=N/A speed=13.2x    frame=32394 fps=317 q=-0.0 size=N/A time=00:22:31.09 bitrate=N/A speed=13.2x    frame=32555 fps=317 q=-0.0 size=N/A time=00:22:37.81 bitrate=N/A speed=13.2x    frame=32707 fps=317 q=-0.0 size=N/A time=00:22:44.15 bitrate=N/A speed=13.2x    frame=32845 fps=317 q=-0.0 size=N/A time=00:22:49.91 bitrate=N/A speed=13.2x    frame=33001 fps=317 q=-0.0 size=N/A time=00:22:56.41 bitrate=N/A speed=13.2x    frame=33160 fps=317 q=-0.0 size=N/A time=00:23:03.04 bitrate=N/A speed=13.2x    frame=33332 fps=317 q=-0.0 size=N/A time=00:23:10.22 bitrate=N/A speed=13.2x    frame=33481 fps=317 q=-0.0 size=N/A time=00:23:16.43 bitrate=N/A speed=13.2x    frame=33622 fps=316 q=-0.0 size=N/A time=00:23:22.31 bitrate=N/A speed=13.2x    frame=33747 fps=316 q=-0.0 size=N/A time=00:23:27.53 bitrate=N/A speed=13.2x    frame=33865 fps=316 q=-0.0 size=N/A time=00:23:32.45 bitrate=N/A speed=13.2x    frame=34005 fps=315 q=-0.0 size=N/A time=00:23:38.29 bitrate=N/A speed=13.2x    frame=34152 fps=315 q=-0.0 size=N/A time=00:23:44.42 bitrate=N/A speed=13.1x    frame=34295 fps=315 q=-0.0 size=N/A time=00:23:50.38 bitrate=N/A speed=13.1x    frame=34412 fps=315 q=-0.0 size=N/A time=00:23:55.26 bitrate=N/A speed=13.1x    frame=34562 fps=315 q=-0.0 size=N/A time=00:24:01.52 bitrate=N/A speed=13.1x    [Parsed_psnr_16 @ 00000261417aefc0] PSNR y:48.909267 u:50.341367 v:50.389912 average:49.342614 min:37.942309 max:inf
[out#0/null @ 000002613a9fdec0] video:14903KiB audio:271276KiB subtitle:0KiB other streams:0KiB global headers:0KiB muxing overhead: unknown
frame=34683 fps=315 q=-0.0 Lsize=N/A time=00:24:06.57 bitrate=N/A speed=13.1x    
